<svg height="526" width="720" xmlns="http://www.w3.org/2000/svg">
<rect height="526" fill="#555" width="720"></rect>
<text fill="#7f7" font-family="Courier New" font-size="12" xml:space="preserve">
<tspan x="10" y="26">2018-04-22 06:42:59 +0000</tspan>

<tspan x="10" y="42">[ci skip] [build app] npm_package_swggAll=github-all</tspan>

<tspan x="10" y="58"></tspan>

<tspan x="10" y="74">2018-04-22 14:40:45 +0800</tspan>

<tspan x="10" y="90">[build app] npm_package_swggAll=github-all</tspan>

<tspan x="10" y="106">2018-04-22 00:39:31 +0000</tspan>

<tspan x="10" y="122">[ci skip] [build appSwgg] npm_package_swggAll=github-all</tspan>

<tspan x="10" y="138"></tspan>

<tspan x="10" y="154">2018-04-22 08:37:29 +0800</tspan>

<tspan x="10" y="170">[build appSwgg] npm_package_swggAll=github-all</tspan>

<tspan x="10" y="186">2018-04-01 03:38:19 +0800</tspan>

<tspan x="10" y="202">[git push origin beta:master]</tspan>

<tspan x="10" y="218">2018-04-01 03:36:39 +0800</tspan>

<tspan x="10" y="234">[git push origin beta:master]</tspan>

<tspan x="10" y="250">2018-04-01 03:36:19 +0800</tspan>

<tspan x="10" y="266">[git push origin beta:master]</tspan>

<tspan x="10" y="282">2018-03-31 17:12:16 +0000</tspan>

<tspan x="10" y="298">[ci skip] [build appSwgg]</tspan>

<tspan x="10" y="314"></tspan>

<tspan x="10" y="330">2018-04-01 01:10:05 +0800</tspan>

<tspan x="10" y="346">[build appSwgg]</tspan>

<tspan x="10" y="362">2018-03-29 16:16:19 +0000</tspan>

<tspan x="10" y="378">[npm publish] - npm publish v2018.3.29</tspan>

<tspan x="10" y="394"></tspan>

<tspan x="10" y="410">2018-03-29 23:07:26 +0900</tspan>

<tspan x="10" y="426">[build app.swgg] npm_package_swggAll=github-all</tspan>

<tspan x="10" y="442">2018-03-29 23:01:35 +0900</tspan>

<tspan x="10" y="458">[npm publishAfterCommitAfterBuild]</tspan>

<tspan x="10" y="474"></tspan>

<tspan x="10" y="490">2014-03-26 02:31:50 +0700</tspan>

<tspan x="10" y="506">add blank README.md</tspan>

</text>
</svg>
