<svg height="494" width="720" xmlns="http://www.w3.org/2000/svg">
<rect height="494" fill="#555" width="720"></rect>
<text fill="#7f7" font-family="Courier New" font-size="12" xml:space="preserve">
<tspan x="10" y="26">2018-05-06 02:24:38 +0800</tspan>

<tspan x="10" y="42">shNpmRunApidocRawFetchAndCreate</tspan>

<tspan x="10" y="58"></tspan>

<tspan x="10" y="74">2018-05-06 01:09:06 +0800</tspan>

<tspan x="10" y="90">apidocRawFetch</tspan>

<tspan x="10" y="106"></tspan>

<tspan x="10" y="122">2018-05-06 00:32:03 +0800</tspan>

<tspan x="10" y="138">update.build</tspan>

<tspan x="10" y="154"></tspan>

<tspan x="10" y="170">2018-04-22 16:04:59 +0800</tspan>

<tspan x="10" y="186">Update README.md</tspan>

<tspan x="10" y="202">2018-04-22 16:03:55 +0800</tspan>

<tspan x="10" y="218">[git push origin 83cc8268150643c0bf07788444bc281e4189e9f1:beta]</tspan>

<tspan x="10" y="234">2018-04-22 07:57:25 +0000</tspan>

<tspan x="10" y="250">[ci skip] npm published</tspan>

<tspan x="10" y="266"></tspan>

<tspan x="10" y="282">2018-04-22 07:49:13 +0000</tspan>

<tspan x="10" y="298">[npm publishAfterCommitAfterBuild]</tspan>

<tspan x="10" y="314"></tspan>

<tspan x="10" y="330">2018-03-29 16:16:19 +0000</tspan>

<tspan x="10" y="346">[npm publish] - npm publish v2018.3.29</tspan>

<tspan x="10" y="362"></tspan>

<tspan x="10" y="378">2018-03-29 23:07:26 +0900</tspan>

<tspan x="10" y="394">[build app.swgg] npm_package_swggAll=github-all</tspan>

<tspan x="10" y="410">2018-03-29 23:01:35 +0900</tspan>

<tspan x="10" y="426">[npm publishAfterCommitAfterBuild]</tspan>

<tspan x="10" y="442"></tspan>

<tspan x="10" y="458">2014-03-26 02:31:50 +0700</tspan>

<tspan x="10" y="474">add blank README.md</tspan>

</text>
</svg>
