<svg height="654" width="720" xmlns="http://www.w3.org/2000/svg">
<rect height="654" fill="#555" width="720"></rect>
<text fill="#7f7" font-family="Courier New" font-size="12" xml:space="preserve">
<tspan x="10" y="26"></tspan>

<tspan x="10" y="42">[MODE_BUILD=buildApp] - 2018-05-05T17:13:32.828Z - npm-testing /home/travis/build/kaizhu256/node\</tspan>
<tspan x="10" y="58">-swgg-github-misc</tspan>

<tspan x="10" y="74"></tspan>

<tspan x="10" y="90"></tspan>

<tspan x="10" y="106">buildApp - merged test-report from file /home/travis/build/kaizhu256/node-swgg-github-misc/tmp/b\</tspan>
<tspan x="10" y="122">uild/test-report.json</tspan>

<tspan x="10" y="138">override assets assets.swgg.swagger.json</tspan>

<tspan x="10" y="154">&gt; server listening on http-port 51407</tspan>

<tspan x="10" y="170">&gt; server listening on http-port 33816</tspan>

<tspan x="10" y="186">[node test-case 1 of 1 passed] - testCase_buildApp_default</tspan>

<tspan x="10" y="202"></tspan>

<tspan x="10" y="218">buildApp - merged test-report from file /home/travis/build/kaizhu256/node-swgg-github-misc/tmp/b\</tspan>
<tspan x="10" y="234">uild/test-report.json</tspan>

<tspan x="10" y="250"></tspan>

<tspan x="10" y="266">-------------------------------------------------------</tspan>

<tspan x="10" y="282">| test-report - buildApidoc - node - linux v10.0.0 - 2018-05-05T17:12:37.816Z</tspan>

<tspan x="10" y="298">|   60962 ms            0 failed        1 passed      |</tspan>

<tspan x="10" y="314">-------------------------------------------------------</tspan>

<tspan x="10" y="330">| test-report - npmTest - node - linux v10.0.0 - 2018-05-05T17:12:16.807Z</tspan>

<tspan x="10" y="346">|   17767 ms            0 failed        8 passed      |</tspan>

<tspan x="10" y="362">-------------------------------------------------------</tspan>

<tspan x="10" y="378">| test-report - npmTestPublished - browser - /index.default.html - Mozilla/5.0 (X11; Linux x86_6\</tspan>
<tspan x="10" y="394">4) AppleWebKit/537.36 (KHTML, like Gecko) Chrome/58.0.3029.110 Electron/1.7.14 Safari/537.36 - 2\</tspan>
<tspan x="10" y="410">018-05-05T17:11:11.619Z</tspan>

<tspan x="10" y="426">|      44 ms            0 failed        8 passed      |</tspan>

<tspan x="10" y="442">-------------------------------------------------------</tspan>

<tspan x="10" y="458">| test-report - npmTestPublished - node - linux v10.0.0 - 2018-05-05T17:11:08.291Z</tspan>

<tspan x="10" y="474">|   17902 ms            0 failed        8 passed      |</tspan>

<tspan x="10" y="490">-------------------------------------------------------</tspan>

<tspan x="10" y="506"></tspan>

<tspan x="10" y="522">created test-report file /home/travis/build/kaizhu256/node-swgg-github-misc/tmp/build/test-repor\</tspan>
<tspan x="10" y="538">t.html</tspan>

<tspan x="10" y="554"></tspan>

<tspan x="10" y="570"></tspan>

<tspan x="10" y="586">buildApp - 0 failed tests</tspan>

<tspan x="10" y="602"></tspan>

<tspan x="10" y="618"></tspan>

<tspan x="10" y="634">[MODE_BUILD=buildApp] - 2018-05-05T17:13:40.360Z - EXIT_CODE - 0</tspan>

</text>
</svg>
